<svg xmlns="http://www.w3.org/2000/svg"
 xmlns:xlink="http://www.w3.org/1999/xlink"
 width="24px" height="21px"  viewBox="0 0 24 21">
<path fill-rule="evenodd"  fill="$color_svg$"
 d="M2.981079,7.814453 C2.981079,7.814453 8.641357,7.814453 8.641357,7.814453 C9.266663,7.814453 9.7734375,8.3203125 9.7734375,8.943359 C9.7734375,8.943359 9.7734375,17.981445 9.7734375,17.981445 C9.7734375,18.604492 9.266663,19.110352 8.641357,19.110352 C8.641357,19.110352 2.981079,19.110352 2.981079,19.110352 C2.355835,19.110352 1.848938,18.604492 1.848938,17.981445 C1.848938,17.981445 1.848938,8.943359 1.848938,8.943359 C1.848938,8.3203125 2.355835,7.814453 2.981079,7.814453 ZM2.981079,8.943359 C2.981079,8.943359 4.112915,8.943359 4.112915,8.943359 C4.112915,8.943359 4.112915,11.203125 4.112915,11.203125 C4.112915,11.203125 2.981079,11.203125 2.981079,11.203125 C2.981079,11.203125 2.981079,8.943359 2.981079,8.943359 ZM5.245056,8.943359 C5.245056,8.943359 6.377136,8.943359 6.377136,8.943359 C6.377136,8.943359 6.377136,11.203125 6.377136,11.203125 C6.377136,11.203125 5.245056,11.203125 5.245056,11.203125 C5.245056,11.203125 5.245056,8.943359 5.245056,8.943359 ZM7.5093384,8.943359 C7.5093384,8.943359 8.641357,8.943359 8.641357,8.943359 C8.641357,8.943359 8.641357,11.203125 8.641357,11.203125 C8.641357,11.203125 7.5093384,11.203125 7.5093384,11.203125 C7.5093384,11.203125 7.5093384,8.943359 7.5093384,8.943359 ZM2.981079,12.333008 C2.981079,12.333008 4.112915,12.333008 4.112915,12.333008 C4.112915,12.333008 4.112915,14.591797 4.112915,14.591797 C4.112915,14.591797 2.981079,14.591797 2.981079,14.591797 C2.981079,14.591797 2.981079,12.333008 2.981079,12.333008 ZM5.245056,12.333008 C5.245056,12.333008 6.377136,12.333008 6.377136,12.333008 C6.377136,12.333008 6.377136,14.591797 6.377136,14.591797 C6.377136,14.591797 5.245056,14.591797 5.245056,14.591797 C5.245056,14.591797 5.245056,12.333008 5.245056,12.333008 ZM7.5093384,12.333008 C7.5093384,12.333008 8.641357,12.333008 8.641357,12.333008 C8.641357,12.333008 8.641357,14.591797 8.641357,14.591797 C8.641357,14.591797 7.5093384,14.591797 7.5093384,14.591797 C7.5093384,14.591797 7.5093384,12.333008 7.5093384,12.333008 ZM2.981079,15.72168 C2.981079,15.72168 4.112915,15.72168 4.112915,15.72168 C4.112915,15.72168 4.112915,17.980469 4.112915,17.980469 C4.112915,17.980469 2.981079,17.980469 2.981079,17.980469 C2.981079,17.980469 2.981079,15.72168 2.981079,15.72168 ZM7.5093384,15.72168 C7.5093384,15.72168 8.641357,15.72168 8.641357,15.72168 C8.641357,15.72168 8.641357,17.980469 8.641357,17.980469 C8.641357,17.980469 7.5093384,17.980469 7.5093384,17.980469 C7.5093384,17.980469 7.5093384,15.72168 7.5093384,15.72168 ZM12.037537,1.0361328 C12.037537,1.0361328 21.02356,1.0371094 21.02356,1.0371094 C21.648682,1.0371094 22.22644,1.5419922 22.22644,2.1669922 C22.22644,2.1669922 22.22644,17.981445 22.22644,17.981445 C22.22644,17.981445 21.790283,19.110352 21.16504,19.110352 C21.16504,19.110352 12.037537,19.110352 12.037537,19.110352 C12.037537,19.110352 10.9053955,18.604492 10.9053955,17.981445 C10.9053955,17.981445 10.9053955,2.1669922 10.9053955,2.1669922 C10.9053955,1.5419922 11.4122925,1.0361328 12.037537,1.0361328 ZM12.037537,5.5546875 C12.037537,5.5546875 14.301758,5.5546875 14.301758,5.5546875 C14.301758,5.5546875 14.301758,7.814453 14.301758,7.814453 C14.301758,7.814453 12.037537,7.814453 12.037537,7.814453 C12.037537,7.814453 12.037537,5.5546875 12.037537,5.5546875 ZM12.037537,8.943359 C12.037537,8.943359 14.301758,8.943359 14.301758,8.943359 C14.301758,8.943359 14.301758,11.203125 14.301758,11.203125 C14.301758,11.203125 12.037537,11.203125 12.037537,11.203125 C12.037537,11.203125 12.037537,8.943359 12.037537,8.943359 ZM12.037537,12.333008 C12.037537,12.333008 14.301758,12.333008 14.301758,12.333008 C14.301758,12.333008 14.301758,14.591797 14.301758,14.591797 C14.301758,14.591797 12.037537,14.591797 12.037537,14.591797 C12.037537,14.591797 12.037537,12.333008 12.037537,12.333008 ZM12.037537,15.72168 C12.037537,15.72168 14.301758,15.72168 14.301758,15.72168 C14.301758,15.72168 14.301758,17.980469 14.301758,17.980469 C14.301758,17.980469 12.037537,17.980469 12.037537,17.980469 C12.037537,17.980469 12.037537,15.72168 12.037537,15.72168 ZM18.830017,5.5546875 C18.830017,5.5546875 21.094238,5.5546875 21.094238,5.5546875 C21.094238,5.5546875 21.094238,7.814453 21.094238,7.814453 C21.094238,7.814453 18.830017,7.814453 18.830017,7.814453 C18.830017,7.814453 18.830017,5.5546875 18.830017,5.5546875 ZM18.830017,8.943359 C18.830017,8.943359 21.094238,8.943359 21.094238,8.943359 C21.094238,8.943359 21.094238,11.203125 21.094238,11.203125 C21.094238,11.203125 18.830017,11.203125 18.830017,11.203125 C18.830017,11.203125 18.830017,8.943359 18.830017,8.943359 ZM18.830017,12.333008 C18.830017,12.333008 21.094238,12.333008 21.094238,12.333008 C21.094238,12.333008 21.094238,14.591797 21.094238,14.591797 C21.094238,14.591797 18.830017,14.591797 18.830017,14.591797 C18.830017,14.591797 18.830017,12.333008 18.830017,12.333008 ZM18.830017,15.72168 C18.830017,15.72168 21.094238,15.72168 21.094238,15.72168 C21.094238,15.72168 21.094238,17.980469 21.094238,17.980469 C21.094238,17.980469 18.830017,17.980469 18.830017,17.980469 C18.830017,17.980469 18.830017,15.72168 18.830017,15.72168 ZM12.037537,2.1660156 C12.037537,2.1660156 14.301758,2.1660156 14.301758,2.1660156 C14.301758,2.1660156 14.301758,4.4248047 14.301758,4.4248047 C14.301758,4.4248047 12.037537,4.4248047 12.037537,4.4248047 C12.037537,4.4248047 12.037537,2.1660156 12.037537,2.1660156 ZM18.830017,2.1660156 C18.830017,2.1660156 21.094238,2.1660156 21.094238,2.1660156 C21.094238,2.1660156 21.094238,4.4248047 21.094238,4.4248047 C21.094238,4.4248047 18.830017,4.4248047 18.830017,4.4248047 C18.830017,4.4248047 18.830017,2.1660156 18.830017,2.1660156 ZM15.433838,5.5546875 C15.433838,5.5546875 17.697937,5.5546875 17.697937,5.5546875 C17.697937,5.5546875 17.697937,7.814453 17.697937,7.814453 C17.697937,7.814453 15.433838,7.814453 15.433838,7.814453 C15.433838,7.814453 15.433838,5.5546875 15.433838,5.5546875 ZM15.433838,8.943359 C15.433838,8.943359 17.697937,8.943359 17.697937,8.943359 C17.697937,8.943359 17.697937,11.203125 17.697937,11.203125 C17.697937,11.203125 15.433838,11.203125 15.433838,11.203125 C15.433838,11.203125 15.433838,8.943359 15.433838,8.943359 ZM15.433838,12.333008 C15.433838,12.333008 17.697937,12.333008 17.697937,12.333008 C17.697937,12.333008 17.697937,14.591797 17.697937,14.591797 C17.697937,14.591797 15.433838,14.591797 15.433838,14.591797 C15.433838,14.591797 15.433838,12.333008 15.433838,12.333008 ZM15.433838,2.1660156 C15.433838,2.1660156 17.697937,2.1660156 17.697937,2.1660156 C17.697937,2.1660156 17.697937,4.4248047 17.697937,4.4248047 C17.697937,4.4248047 15.433838,4.4248047 15.433838,4.4248047 C15.433838,4.4248047 15.433838,2.1660156 15.433838,2.1660156 Z"/>
</svg>