<svg xmlns="http://www.w3.org/2000/svg"
 xmlns:xlink="http://www.w3.org/1999/xlink"
 width="36px" height="36px"  viewBox="0 0 36 36">
<path fill-rule="evenodd"  fill="$color_svg$"
 d="M33.41452,12.585449 C33.41452,12.585449 23.414581,2.584961 23.414581,2.584961 C22.918457,2.0893555 22.199615,1.8896484 21.519043,2.057129 C21.159607,2.1464844 20.839417,2.3305664 20.585419,2.584961 C20.358795,2.8115234 20.187012,3.0932617 20.089325,3.4082031 C19.635254,4.876465 18.85205,6.1538086 17.693817,7.3125 C16.145966,8.858398 14.13031,10.030273 11.9965515,11.269043 C9.73291,12.581543 7.394104,13.940918 5.4770813,15.856934 C3.8482056,17.487793 2.7387085,19.301758 2.0893555,21.407715 C1.8706055,22.118164 2.0609436,22.888184 2.5854797,23.413574 C2.5854797,23.413574 12.585419,33.413574 12.585419,33.413574 C13.081512,33.90918 13.800262,34.109375 14.4809265,33.940918 C14.8402405,33.851074 15.160675,33.66748 15.414551,33.413574 C15.641052,33.186523 15.812958,32.905273 15.910645,32.589355 C16.364716,31.120605 17.147919,29.842773 18.307098,28.685059 C19.854004,27.138184 21.869537,25.967773 24.004395,24.729492 C26.26709,23.41504 28.605988,22.055664 30.522888,20.140625 C32.151886,18.51123 33.26117,16.694336 33.910614,14.588867 C34.129364,13.879883 33.938904,13.108887 33.41452,12.585449 ZM14.000458,31.999023 C10.687988,28.686523 7.31192,25.310059 3.9994507,21.999512 C6.841278,12.797852 19.15863,13.200684 21.99942,3.9990234 C25.311981,7.3100586 28.687958,10.687012 32.000397,13.999023 C29.158691,23.197754 16.841217,22.79834 14.000458,31.999023 ZM21.560974,16.898926 C21.234894,16.626465 20.906708,16.44043 20.57663,16.348633 C20.248444,16.257324 19.92035,16.219727 19.58841,16.243164 C19.260223,16.268066 18.924286,16.343262 18.588318,16.472168 C18.252502,16.603027 17.914581,16.746094 17.574646,16.90918 C17.037537,16.291504 16.500458,15.682617 15.963379,15.116699 C16.205505,14.896973 16.440002,14.786133 16.666504,14.77832 C16.893127,14.769043 17.111755,14.79248 17.318878,14.845215 C17.529785,14.896973 17.723175,14.942383 17.900818,14.978516 C18.080597,15.012695 18.236755,14.974609 18.373444,14.858887 C18.518005,14.733887 18.598206,14.571777 18.609833,14.375488 C18.619568,14.178711 18.54535,13.987793 18.381317,13.800293 C18.170319,13.558105 17.916443,13.411133 17.611725,13.356934 C17.310913,13.303711 17.002441,13.307617 16.682007,13.37793 C16.365662,13.450684 16.064941,13.569824 15.779724,13.737793 C15.494507,13.904785 15.266022,14.077637 15.0961,14.245605 C15.030823,14.182617 14.966248,14.121582 14.900848,14.062012 C14.828491,13.995117 14.7388,13.960449 14.631348,13.961914 C14.521912,13.961914 14.432098,14.008789 14.35788,14.094727 C14.285675,14.178711 14.252441,14.276367 14.266052,14.379395 C14.275818,14.488281 14.318787,14.569336 14.392975,14.631836 C14.458405,14.686523 14.52298,14.741699 14.588379,14.797852 C14.332397,15.106445 14.121521,15.448242 13.955597,15.807617 C13.787567,16.168945 13.687988,16.526367 13.650879,16.874023 C13.611786,17.223633 13.648895,17.543945 13.756317,17.841309 C13.86377,18.139648 14.060913,18.394043 14.350006,18.634766 C14.82074,19.024902 15.375458,19.19043 16.018097,19.152832 C16.65863,19.114746 17.350006,18.922363 18.092224,18.524414 C18.683075,19.206055 19.274902,19.88379 19.865631,20.513184 C19.615662,20.723633 19.397003,20.844727 19.203491,20.88379 C19.010223,20.924316 18.838318,20.92041 18.682037,20.874512 C18.525848,20.825195 18.381317,20.75586 18.248383,20.66504 C18.115723,20.57373 17.984894,20.495117 17.853973,20.430664 C17.725037,20.36621 17.592255,20.331055 17.455566,20.32959 C17.318878,20.327148 17.174225,20.393555 17.01419,20.53125 C16.850037,20.672852 16.768066,20.839355 16.768066,21.026855 C16.768066,21.212402 16.854004,21.402344 17.021942,21.592773 C17.191833,21.784668 17.412598,21.943848 17.680206,22.07129 C17.947784,22.198242 18.248383,22.27832 18.580566,22.299805 C18.912537,22.323242 19.262207,22.27295 19.631378,22.13623 C20.002441,22.000977 20.369598,21.757324 20.730927,21.394531 C20.905762,21.563477 21.081543,21.726074 21.256378,21.882324 C21.330597,21.94629 21.42041,21.97754 21.529724,21.969727 C21.635284,21.96582 21.727112,21.91748 21.799225,21.829102 C21.873413,21.739258 21.904785,21.639648 21.893036,21.536621 C21.88327,21.430176 21.840302,21.350586 21.768097,21.291992 C21.592194,21.151855 21.416412,21.003418 21.240631,20.847168 C21.539581,20.479492 21.779724,20.092773 21.957489,19.71045 C22.135284,19.325195 22.2406,18.95459 22.275818,18.610352 C22.310944,18.265137 22.269958,17.952148 22.156769,17.669434 C22.045319,17.382324 21.846191,17.13623 21.560974,16.898926 ZM15.97113,17.577148 C15.687897,17.588867 15.440857,17.495605 15.225037,17.286133 C15.133209,17.19873 15.068878,17.091309 15.029755,16.963867 C14.98877,16.837402 14.975037,16.698242 14.990662,16.545898 C15.004395,16.395508 15.049255,16.239258 15.127472,16.081543 C15.20166,15.922852 15.310974,15.764648 15.45166,15.613281 C15.958435,16.1167 16.464417,16.669434 16.971191,17.2417 C16.58841,17.452637 16.254364,17.56543 15.97113,17.577148 ZM20.687927,19.579102 C20.598114,19.745605 20.494537,19.894043 20.373474,20.02295 C19.813965,19.456543 19.253418,18.83496 18.693878,18.19629 C18.836334,18.131836 18.986725,18.06543 19.148895,17.997559 C19.310944,17.92871 19.473083,17.884277 19.635254,17.856934 C19.8013,17.831055 19.96521,17.838867 20.129364,17.878906 C20.291412,17.918457 20.44571,18.007812 20.588379,18.145996 C20.728912,18.286133 20.818848,18.433105 20.853973,18.59082 C20.893066,18.750977 20.894958,18.913086 20.867706,19.07959 C20.838348,19.245117 20.779755,19.411133 20.687927,19.579102 ZM16.717224,24.1792 C16.717224,24.1792 16.71524,24.1792 16.71524,24.1792 C16.090302,24.659668 15.47995,25.165527 14.915527,25.731445 C14.372559,26.274902 13.881378,26.84668 13.454559,27.431152 C13.454559,27.431152 12.770935,28.36377 12.770935,28.36377 C12.770935,28.36377 12.772919,28.36621 12.772919,28.36621 C12.64798,28.561523 12.669373,28.82373 12.839386,28.993164 C13.034668,29.188477 13.352997,29.188477 13.549194,28.993164 C13.57962,28.96289 13.602966,28.9292 13.623413,28.894043 C13.623413,28.894043 14.2621765,28.018555 14.2621765,28.018555 C14.6586,27.47754 15.116669,26.944824 15.623444,26.438965 C16.184021,25.87793 16.704529,25.443848 17.33731,24.963867 C17.33731,24.963867 17.33545,24.961426 17.33545,24.961426 C17.352936,24.948242 17.370544,24.9375 17.38617,24.921875 C17.582489,24.725586 17.582489,24.407227 17.38617,24.211914 C17.203583,24.028809 16.913544,24.020996 16.717224,24.1792 ZM20.377472,9.714844 C19.85495,10.236816 19.287567,10.708496 18.700714,11.157227 C18.65866,11.181152 18.617676,11.206055 18.582458,11.243164 C18.385315,11.440918 18.385315,11.760742 18.582458,11.958496 C18.77478,12.151367 19.083496,12.155273 19.282654,11.972656 C19.282654,11.972656 19.285706,11.974121 19.285706,11.974121 C19.91156,11.493164 20.519897,10.984863 21.084473,10.421387 C21.62741,9.87793 22.118591,9.308105 22.545319,8.723145 C22.545319,8.723145 23.228943,7.786621 23.228943,7.786621 C23.228943,7.786621 23.22705,7.784668 23.22705,7.784668 C23.396973,7.584961 23.390045,7.288574 23.20169,7.100586 C23.005371,6.9033203 22.685974,6.9033203 22.488708,7.100586 C22.452545,7.1376953 22.425293,7.1811523 22.401825,7.224121 C22.401825,7.224121 21.736755,8.133789 21.736755,8.133789 C21.341278,8.677246 20.88321,9.208984 20.377472,9.714844 Z"/>
</svg>