<svg xmlns="http://www.w3.org/2000/svg"
 xmlns:xlink="http://www.w3.org/1999/xlink"
 width="30px" height="43px"  viewBox="0 0 30 43">
<path fill-rule="evenodd"  fill="$color_svg$"
 d="M14.999939,1.9984131 C7.405945,1.9984131 1.2499084,8.154907 1.2499084,15.748291 C1.2499084,20.787598 5.860565,26.12793 7.5391235,30.816895 C10.042633,37.81311 9.765533,41.998657 14.999939,41.998657 C20.312408,41.998657 19.955933,37.831787 22.460999,30.84668 C24.145508,26.145874 28.749939,20.749268 28.749939,15.748291 C28.749939,8.154907 22.593903,1.9984131 14.999939,1.9984131 ZM18.240997,35.968018 C18.240997,35.968018 12.042206,36.74353 12.042206,36.74353 C11.821228,36.10254 11.583221,35.352783 11.295074,34.376343 C11.291412,34.364624 11.286591,34.34973 11.284149,34.33728 C11.284149,34.33728 19.019714,33.37097 19.019714,33.37097 C18.90982,33.740845 18.791473,34.129272 18.690125,34.475708 C18.52655,35.03772 18.378845,35.525635 18.240997,35.968018 ZM10.92038,33.134155 C10.693268,32.38208 10.436951,31.588623 10.151367,30.748901 C10.151367,30.748901 19.858337,30.748901 19.858337,30.748901 C19.705688,31.197632 19.552002,31.64795 19.418945,32.071655 C19.418945,32.071655 10.92038,33.134155 10.92038,33.134155 ZM14.999939,39.498535 C13.734131,39.498535 13.150543,39.35315 12.503571,37.936523 C12.503571,37.936523 17.801483,37.27368 17.801483,37.27368 C17.034851,39.3407 16.4758,39.498535 14.999939,39.498535 ZM20.839874,28.24878 C20.839874,28.24878 9.1736145,28.24878 9.1736145,28.24878 C8.550934,26.899536 7.804016,25.548584 7.06662,24.22815 C5.43573,21.30896 3.749939,18.289795 3.749939,15.748291 C3.749939,9.544922 8.796326,4.498535 14.999939,4.498535 C21.203522,4.498535 26.249939,9.544922 26.249939,15.748291 C26.249939,18.270996 24.562958,21.30664 22.930786,24.243042 C22.199738,25.55957 21.45868,26.905762 20.839874,28.24878 ZM14.999939,8.249512 C10.864227,8.249512 7.499878,11.613403 7.499878,15.748291 C7.499878,16.094604 7.77948,16.373657 8.124939,16.373657 C8.470367,16.373657 8.7499695,16.094604 8.7499695,15.748291 C8.7499695,12.3029785 11.553986,9.498779 14.999939,9.498779 C15.345398,9.498779 15.6249695,9.2196045 15.6249695,8.8741455 C15.6249695,8.527832 15.345398,8.249512 14.999939,8.249512 Z"/>
</svg>