<svg xmlns="http://www.w3.org/2000/svg"
 xmlns:xlink="http://www.w3.org/1999/xlink"
 width="31px" height="35px"  viewBox="0 0 31 35">
<path fill-rule="evenodd"  fill="$color_svg$"
 d="M28.112305,7.0214844 C28.112305,7.0214844 26.89746,3.3652344 26.89746,3.3652344 C26.624939,2.5498047 25.861237,1.9985352 24.999939,1.9985352 C24.999939,1.9985352 6.9999695,1.9985352 6.9999695,1.9985352 C6.1387024,1.9985352 5.375,2.5498047 5.1024475,3.3652344 C5.1024475,3.3652344 3.8778687,7.022949 3.8778687,7.022949 C2.8339844,7.0913086 1.999939,7.9379883 1.999939,8.998535 C1.999939,8.998535 1.999939,11.999023 1.999939,11.999023 C1.999939,13.103027 2.8954163,13.999023 4.0,13.999023 C4.0,13.999023 5.0341187,13.999023 5.0341187,13.999023 C5.0341187,14.07373 5.0038147,14.144531 5.0126343,14.219238 C5.0126343,14.219238 7.012665,32.219727 7.012665,32.219727 C7.1249084,33.231934 7.980438,33.999023 8.999908,33.999023 C8.999908,33.999023 22.999908,33.999023 22.999908,33.999023 C24.01947,33.999023 24.875,33.231934 24.987244,32.219727 C24.987244,32.219727 26.987305,14.219238 26.987305,14.219238 C26.996094,14.144531 26.96579,14.07373 26.96579,13.999023 C26.96579,13.999023 27.999939,13.999023 27.999939,13.999023 C29.104523,13.999023 29.99997,13.103027 29.99997,11.999023 C29.99997,11.999023 29.99997,8.998535 29.99997,8.998535 C29.99997,7.934082 29.161102,7.083496 28.112305,7.0214844 ZM6.9999695,3.9985352 C6.9999695,3.9985352 24.999939,3.9985352 24.999939,3.9985352 C24.999939,3.9985352 25.999908,6.9990234 25.999908,6.9990234 C25.999908,6.9990234 5.9999084,6.9990234 5.9999084,6.9990234 C5.9999084,6.9990234 6.9999695,3.9985352 6.9999695,3.9985352 ZM8.999908,31.999023 C8.999908,31.999023 8.666901,28.999512 8.666901,28.999512 C8.666901,28.999512 23.332916,28.999512 23.332916,28.999512 C23.332916,28.999512 22.999908,31.999023 22.999908,31.999023 C22.999908,31.999023 8.999908,31.999023 8.999908,31.999023 ZM23.444214,27.999023 C23.444214,27.999023 8.555695,27.999023 8.555695,27.999023 C8.555695,27.999023 7.4443054,17.999023 7.4443054,17.999023 C7.4443054,17.999023 24.555603,17.999023 24.555603,17.999023 C24.555603,17.999023 23.444214,27.999023 23.444214,27.999023 ZM24.666931,16.998535 C24.666931,16.998535 7.3329773,16.998535 7.3329773,16.998535 C7.3329773,16.998535 6.9999695,13.999023 6.9999695,13.999023 C6.9999695,13.999023 24.999939,13.999023 24.999939,13.999023 C24.999939,13.999023 24.666931,16.998535 24.666931,16.998535 ZM27.999939,11.999023 C27.999939,11.999023 4.0,11.999023 4.0,11.999023 C4.0,11.999023 4.0,8.998535 4.0,8.998535 C4.0,8.998535 27.999939,8.998535 27.999939,8.998535 C27.999939,8.998535 27.999939,11.999023 27.999939,11.999023 Z"/>
</svg>