<svg xmlns="http://www.w3.org/2000/svg"
 xmlns:xlink="http://www.w3.org/1999/xlink"
 width="22px" height="22px"  viewBox="0 0 22 22">
<path fill-rule="evenodd"  fill="$color_svg$"
 d="M1.6495972,1.6484375 C1.6495972,1.6484375 20.34961,1.6484375 20.34961,1.6484375 C20.34961,1.6484375 20.34961,20.348633 20.34961,20.348633 C20.34961,20.348633 1.6495972,20.348633 1.6495972,20.348633 C1.6495972,20.348633 1.6495972,1.6484375 1.6495972,1.6484375 ZM6.7496643,3.3486328 C6.7496643,3.3486328 15.249542,3.3486328 15.249542,3.3486328 C15.249542,3.3486328 15.249542,10.1484375 15.249542,10.1484375 C15.249542,10.1484375 6.7496643,10.1484375 6.7496643,10.1484375 C6.7496643,10.1484375 6.7496643,3.3486328 6.7496643,3.3486328 ZM6.7496643,11.848633 C6.7496643,11.848633 15.249542,11.848633 15.249542,11.848633 C15.249542,11.848633 15.249542,18.648438 15.249542,18.648438 C15.249542,18.648438 6.7496643,18.648438 6.7496643,18.648438 C6.7496643,18.648438 6.7496643,11.848633 6.7496643,11.848633 ZM16.949554,3.3486328 C16.949554,3.3486328 18.649597,3.3486328 18.649597,3.3486328 C18.649597,3.3486328 18.649597,5.0478516 18.649597,5.0478516 C18.649597,5.0478516 16.949554,5.0478516 16.949554,5.0478516 C16.949554,5.0478516 16.949554,3.3486328 16.949554,3.3486328 ZM16.949554,5.8984375 C16.949554,5.8984375 18.649597,5.8984375 18.649597,5.8984375 C18.649597,5.8984375 18.649597,7.5996094 18.649597,7.5996094 C18.649597,7.5996094 16.949554,7.5996094 16.949554,7.5996094 C16.949554,7.5996094 16.949554,5.8984375 16.949554,5.8984375 ZM16.949554,8.449219 C16.949554,8.449219 18.649597,8.449219 18.649597,8.449219 C18.649597,8.449219 18.649597,10.1484375 18.649597,10.1484375 C18.649597,10.1484375 16.949554,10.1484375 16.949554,10.1484375 C16.949554,10.1484375 16.949554,8.449219 16.949554,8.449219 ZM16.949554,11.848633 C16.949554,11.848633 18.649597,11.848633 18.649597,11.848633 C18.649597,11.848633 18.649597,13.547852 18.649597,13.547852 C18.649597,13.547852 16.949554,13.547852 16.949554,13.547852 C16.949554,13.547852 16.949554,11.848633 16.949554,11.848633 ZM16.949554,14.399414 C16.949554,14.399414 18.649597,14.399414 18.649597,14.399414 C18.649597,14.399414 18.649597,16.098633 18.649597,16.098633 C18.649597,16.098633 16.949554,16.098633 16.949554,16.098633 C16.949554,16.098633 16.949554,14.399414 16.949554,14.399414 ZM16.949554,16.948242 C16.949554,16.948242 18.649597,16.948242 18.649597,16.948242 C18.649597,16.948242 18.649597,18.648438 18.649597,18.648438 C18.649597,18.648438 16.949554,18.648438 16.949554,18.648438 C16.949554,18.648438 16.949554,16.948242 16.949554,16.948242 ZM3.3496094,3.3486328 C3.3496094,3.3486328 5.0497437,3.3486328 5.0497437,3.3486328 C5.0497437,3.3486328 5.0497437,5.0478516 5.0497437,5.0478516 C5.0497437,5.0478516 3.3496094,5.0478516 3.3496094,5.0478516 C3.3496094,5.0478516 3.3496094,3.3486328 3.3496094,3.3486328 ZM3.3496094,5.8984375 C3.3496094,5.8984375 5.0497437,5.8984375 5.0497437,5.8984375 C5.0497437,5.8984375 5.0497437,7.5996094 5.0497437,7.5996094 C5.0497437,7.5996094 3.3496094,7.5996094 3.3496094,7.5996094 C3.3496094,7.5996094 3.3496094,5.8984375 3.3496094,5.8984375 ZM3.3496094,8.449219 C3.3496094,8.449219 5.0497437,8.449219 5.0497437,8.449219 C5.0497437,8.449219 5.0497437,10.1484375 5.0497437,10.1484375 C5.0497437,10.1484375 3.3496094,10.1484375 3.3496094,10.1484375 C3.3496094,10.1484375 3.3496094,8.449219 3.3496094,8.449219 ZM3.3496094,11.848633 C3.3496094,11.848633 5.0497437,11.848633 5.0497437,11.848633 C5.0497437,11.848633 5.0497437,13.547852 5.0497437,13.547852 C5.0497437,13.547852 3.3496094,13.547852 3.3496094,13.547852 C3.3496094,13.547852 3.3496094,11.848633 3.3496094,11.848633 ZM3.3496094,14.399414 C3.3496094,14.399414 5.0497437,14.399414 5.0497437,14.399414 C5.0497437,14.399414 5.0497437,16.098633 5.0497437,16.098633 C5.0497437,16.098633 3.3496094,16.098633 3.3496094,16.098633 C3.3496094,16.098633 3.3496094,14.399414 3.3496094,14.399414 ZM3.3496094,16.948242 C3.3496094,16.948242 5.0497437,16.948242 5.0497437,16.948242 C5.0497437,16.948242 5.0497437,18.648438 5.0497437,18.648438 C5.0497437,18.648438 3.3496094,18.648438 3.3496094,18.648438 C3.3496094,18.648438 3.3496094,16.948242 3.3496094,16.948242 Z"/>
</svg>