<svg xmlns="http://www.w3.org/2000/svg"
 xmlns:xlink="http://www.w3.org/1999/xlink"
 width="25px" height="24px"  viewBox="0 0 25 24">
<path fill-rule="evenodd"  fill="$color_svg$"
 d="M19.724731,22.198242 C19.724731,22.198242 19.724731,20.498047 19.724731,20.498047 C19.724731,20.498047 19.70337,20.498047 19.70337,20.498047 C19.711548,20.356445 19.724731,20.216797 19.724731,20.072266 C19.724731,20.072266 19.724731,12.848633 19.724731,12.848633 C19.724731,12.848633 19.724731,10.723633 19.724731,10.723633 C19.724731,6.7333984 16.48999,3.4970703 12.499878,3.4970703 C8.509644,3.4970703 5.2749023,6.7333984 5.2749023,10.723633 C5.2749023,10.723633 5.2749023,12.848633 5.2749023,12.848633 C5.2749023,12.848633 5.2749023,20.072266 5.2749023,20.072266 C5.2749023,20.216797 5.287964,20.356445 5.2962646,20.498047 C5.2962646,20.498047 5.2749023,20.498047 5.2749023,20.498047 C5.2749023,20.498047 5.2749023,22.198242 5.2749023,22.198242 C5.2749023,22.198242 1.0247803,22.126953 1.0247803,17.523438 C1.0247803,14.912109 2.3912354,13.760742 3.574707,13.251953 C3.574707,13.251953 3.574707,10.723633 3.574707,10.723633 C3.574707,5.7929688 7.5706787,1.7988281 12.499878,1.7988281 C17.428955,1.7988281 21.424805,5.7929688 21.424805,10.723633 C21.424805,10.723633 21.424805,13.251953 21.424805,13.251953 C22.608276,13.760742 23.974854,14.912109 23.974854,17.523438 C23.974854,22.126953 19.724731,22.198242 19.724731,22.198242 ZM6.9748535,22.198242 C6.9748535,22.198242 6.124756,22.198242 6.124756,22.198242 C6.124756,22.198242 6.124756,12.848633 6.124756,12.848633 C6.124756,12.848633 6.9748535,12.848633 6.9748535,12.848633 C6.9748535,12.848633 6.9748535,22.198242 6.9748535,22.198242 ZM18.874878,22.198242 C18.874878,22.198242 18.024902,22.198242 18.024902,22.198242 C18.024902,22.198242 18.024902,12.848633 18.024902,12.848633 C18.024902,12.848633 18.874878,12.848633 18.874878,12.848633 C18.874878,12.848633 18.874878,22.198242 18.874878,22.198242 Z"/>
</svg>