<svg xmlns="http://www.w3.org/2000/svg"
 xmlns:xlink="http://www.w3.org/1999/xlink"
 width="35px" height="35px"  viewBox="0 0 35 35">
<path fill-rule="evenodd"  fill="$color_svg$"
 d="M22.681519,5.7319336 C22.209473,5.258789 21.581482,4.9995117 20.914062,4.9995117 C20.246094,4.9995117 19.618713,5.258789 19.145508,5.73291 C19.145508,5.73291 17.734314,7.1445312 17.734314,7.1445312 C17.261108,7.616211 17.000427,8.244629 16.999939,8.913574 C16.999939,9.384277 17.128906,9.834473 17.371033,10.2265625 C17.371033,10.2265625 3.7943115,15.665039 3.7943115,15.665039 C2.8866577,16.064453 2.2352905,16.882324 2.052124,17.85498 C1.8676758,18.831543 2.177185,19.833496 2.8866577,20.541016 C2.8866577,20.541016 15.606873,33.121582 15.606873,33.121582 C16.154785,33.669434 16.882751,33.981445 17.651855,33.99756 C17.668884,33.998535 17.711426,33.998535 17.728455,33.998535 C17.930664,33.998535 18.134705,33.979004 18.338806,33.93701 C19.33197,33.73047 20.146973,33.043945 20.515564,32.1084 C20.515564,32.1084 25.85736,18.73291 25.85736,18.73291 C26.26062,18.998047 26.731812,19.13916 27.225586,19.13916 C27.89392,19.13916 28.522522,18.879883 28.993103,18.40625 C28.993103,18.40625 30.401367,16.999023 30.401367,16.999023 C30.87738,16.524902 31.139587,15.896484 31.139587,15.225586 C31.139587,14.555176 30.87738,13.925781 30.406616,13.458008 C30.406616,13.458008 22.681519,5.7319336 22.681519,5.7319336 ZM18.658203,31.36621 C18.534668,31.679688 18.26117,31.910645 17.932068,31.978516 C17.855957,31.99414 17.779297,32.000977 17.703064,31.999023 C17.449097,31.993164 17.204529,31.891113 17.020996,31.707031 C17.020996,31.707031 4.2929688,19.119629 4.2929688,19.119629 C4.059082,18.885254 3.9559937,18.55127 4.017517,18.22705 C4.0786133,17.902832 4.296875,17.628906 4.598999,17.49707 C4.598999,17.49707 10.816345,15.005371 10.816345,15.005371 C15.005798,16.398438 19.19574,15.057129 23.38617,19.527832 C23.38617,19.527832 18.658203,31.36621 18.658203,31.36621 ZM28.992188,15.579102 C28.992188,15.579102 27.57904,16.992676 27.57904,16.992676 C27.3833,17.188965 27.067322,17.188965 26.87201,16.992676 C26.87201,16.992676 25.104492,15.225586 25.104492,15.225586 C25.104492,15.225586 23.671387,18.814941 23.671387,18.814941 C23.671387,18.814941 23.791931,18.511719 23.791931,18.511719 C20.781616,15.506348 17.722107,15.12793 14.962341,14.788574 C14.075134,14.680176 13.215698,14.566895 12.370056,14.383789 C12.370056,14.383789 20.861694,10.982422 20.861694,10.982422 C20.861694,10.982422 19.146423,9.268066 19.146423,9.268066 C18.951172,9.072266 18.951172,8.755859 19.146912,8.561035 C19.146912,8.561035 20.560425,7.145996 20.560425,7.145996 C20.75592,6.9501953 21.072266,6.9501953 21.267517,7.145996 C21.267517,7.145996 28.992188,14.871582 28.992188,14.871582 C29.188965,15.067871 29.188965,15.383789 28.992188,15.579102 ZM18.499878,22.999023 C19.878296,22.999023 20.999939,21.878906 20.999939,20.499512 C20.999939,19.120605 19.878296,17.999512 18.499878,17.999512 C17.121582,17.999512 15.999878,19.120605 15.999878,20.499512 C15.999878,21.878906 17.121582,22.999023 18.499878,22.999023 ZM18.499878,18.999512 C19.328552,18.999512 19.999939,19.670898 19.999939,20.499512 C19.999939,21.327637 19.328552,21.999023 18.499878,21.999023 C17.671387,21.999023 16.999939,21.327637 16.999939,20.499512 C16.999939,19.670898 17.671387,18.999512 18.499878,18.999512 ZM31.499939,2.0 C30.121521,2.0 28.999939,3.1206055 28.999939,4.4990234 C28.999939,5.8779297 30.121521,6.9990234 31.499939,6.9990234 C32.878357,6.9990234 33.99994,5.8779297 33.99994,4.4990234 C33.99994,3.1206055 32.878357,2.0 31.499939,2.0 ZM31.499939,5.9995117 C30.671326,5.9995117 30.0,5.3271484 30.0,4.4990234 C30.0,3.6704102 30.671326,2.9995117 31.499939,2.9995117 C32.328613,2.9995117 33.0,3.6704102 33.0,4.4990234 C33.0,5.3271484 32.328613,5.9995117 31.499939,5.9995117 ZM9.999878,18.999512 C9.999878,20.101562 10.896973,20.999023 11.999939,20.999023 C13.102966,20.999023 13.999939,20.101562 13.999939,18.999512 C13.999939,17.896484 13.102966,16.999023 11.999939,16.999023 C10.896973,16.999023 9.999878,17.896484 9.999878,18.999512 ZM11.999939,17.999512 C12.552185,17.999512 12.999878,18.446777 12.999878,18.999512 C12.999878,19.55127 12.552185,19.999512 11.999939,19.999512 C11.447693,19.999512 11.0,19.55127 11.0,18.999512 C11.0,18.446777 11.447693,17.999512 11.999939,17.999512 ZM14.999939,25.999512 C15.552185,25.999512 15.999878,25.552246 15.999878,24.999512 C15.999878,24.44629 15.552185,23.999512 14.999939,23.999512 C14.447693,23.999512 13.999939,24.44629 13.999939,24.999512 C13.999939,25.552246 14.447693,25.999512 14.999939,25.999512 ZM30.999939,8.999023 C30.447754,8.999023 30.0,9.446777 30.0,9.999023 C30.0,10.552246 30.447754,10.998535 30.999939,10.998535 C31.552185,10.998535 31.999939,10.552246 31.999939,9.999023 C31.999939,9.446777 31.552185,8.999023 30.999939,8.999023 Z"/>
</svg>