<svg xmlns="http://www.w3.org/2000/svg"
 xmlns:xlink="http://www.w3.org/1999/xlink"
 width="35px" height="35px"  viewBox="0 0 35 35">
<path fill-rule="evenodd"  fill="$color_svg$"
 d="M31.164062,12.470703 C29.91504,12.14209 26.974487,12.145996 22.675781,12.032715 C22.879883,11.094727 22.925781,10.248535 22.925781,8.747559 C22.925781,5.1591797 20.312378,1.9985352 17.999878,1.9985352 C16.367188,1.9985352 15.020508,3.3339844 14.999878,4.975586 C14.977539,6.989746 14.355347,10.467773 11.0,12.231445 C10.753906,12.36084 10.049805,12.708008 9.947266,12.753418 C9.947266,12.753418 10.0,12.797852 10.0,12.797852 C9.474609,12.344727 8.74707,11.999023 8.0,11.999023 C8.0,11.999023 5.0,11.999023 5.0,11.999023 C3.3457031,11.999023 1.9998779,13.344727 1.9998779,14.999023 C1.9998779,14.999023 1.9998779,30.999512 1.9998779,30.999512 C1.9998779,32.65381 3.3457031,33.999023 5.0,33.999023 C5.0,33.999023 8.0,33.999023 8.0,33.999023 C9.19043,33.999023 10.185425,33.28125 10.667969,32.27295 C10.6796875,32.276855 10.701172,32.283203 10.714722,32.28369 C10.78125,32.301758 10.858398,32.32129 10.954102,32.347168 C10.97168,32.351074 10.981323,32.35254 11.0,32.358887 C11.576172,32.500977 12.68457,32.76709 15.0546875,33.311035 C15.563477,33.426758 18.246094,33.999023 21.028198,33.999023 C21.028198,33.999023 26.494019,33.999023 26.494019,33.999023 C28.161133,33.999023 29.361206,33.358887 30.07605,32.07129 C30.086914,32.051758 30.317383,31.603027 30.50476,30.995605 C30.645508,30.538086 30.69812,29.892578 30.52832,29.23584 C31.601562,28.497559 31.947266,27.381348 32.17285,26.655273 C32.548706,25.464355 32.435425,24.569336 32.173706,23.9292 C32.77722,23.358398 33.29297,22.48877 33.51062,21.164062 C33.645508,20.34082 33.500977,19.495605 33.121094,18.790527 C33.6875,18.155762 33.94629,17.354492 33.97461,16.614746 C33.97461,16.614746 33.986206,16.405762 33.986206,16.405762 C33.99414,16.273926 34.0,16.192383 34.0,15.904785 C34.0,14.641602 33.125977,13.03125 31.164062,12.470703 ZM9.0,30.999512 C9.0,31.552246 8.552734,31.999023 8.0,31.999023 C8.0,31.999023 5.0,31.999023 5.0,31.999023 C4.4472656,31.999023 3.999878,31.552246 3.999878,30.999512 C3.999878,30.999512 3.999878,14.999023 3.999878,14.999023 C3.999878,14.4453125 4.4472656,13.998047 5.0,13.998047 C5.0,13.998047 8.0,13.998047 8.0,13.998047 C8.552734,13.998047 9.0,14.4453125 9.0,14.999023 C9.0,14.999023 9.0,30.999512 9.0,30.999512 ZM31.97754,16.533203 C31.95691,17.02832 31.75,17.998535 30.0,17.998535 C28.5,17.998535 28.0,17.998535 28.0,17.998535 C27.72351,17.998535 27.5,18.222168 27.5,18.499023 C27.5,18.774902 27.72351,18.998535 28.0,18.998535 C28.0,18.998535 28.4375,18.998535 29.937378,18.998535 C31.4375,18.998535 31.634766,20.243164 31.53711,20.842773 C31.414917,21.589355 31.064453,22.998535 29.375977,22.998535 C27.687378,22.998535 26.999878,22.998535 26.999878,22.998535 C26.723633,22.998535 26.499878,23.222168 26.499878,23.498047 C26.499878,23.774902 26.723633,23.999512 26.999878,23.999512 C26.999878,23.999512 28.1875,23.999512 28.968872,23.999512 C30.65625,23.999512 30.50879,25.286133 30.265625,26.05371 C29.947266,27.063965 29.751953,27.999023 27.625977,27.999023 C26.90625,27.999023 25.994019,27.999023 25.994019,27.999023 C25.717773,27.999023 25.49414,28.22168 25.49414,28.499023 C25.49414,28.774414 25.717773,28.999512 25.994019,28.999512 C25.994019,28.999512 26.6875,28.999512 27.5625,28.999512 C28.65625,28.999512 28.707886,30.033691 28.59375,30.405273 C28.46875,30.811523 28.32129,31.112793 28.314453,31.125977 C28.011597,31.670898 27.52539,31.999023 26.494019,31.999023 C26.494019,31.999023 21.028198,31.999023 21.028198,31.999023 C18.28125,31.999023 15.557617,31.375977 15.487183,31.360352 C11.333008,30.402832 11.114258,30.32959 10.853394,30.254883 C10.853394,30.254883 10.0078125,30.112793 10.0078125,29.375 C10.0078125,29.375 10.0,15.561523 10.0,15.561523 C10.0,15.093262 10.298706,14.669434 10.793823,14.520508 C10.855469,14.496094 10.939453,14.470215 11.0,14.444336 C15.568359,12.553223 16.958984,8.404297 17.0,4.998535 C17.00586,4.5200195 17.375,3.9985352 17.999878,3.9985352 C19.057495,3.9985352 20.92566,6.1210938 20.92566,8.747559 C20.92566,11.118164 20.831055,11.526855 20.0,13.998047 C30.0,13.998047 29.929688,14.14209 30.8125,14.373535 C31.90625,14.686035 31.999878,15.592285 31.999878,15.904785 C31.999878,16.24707 31.990234,16.197266 31.97754,16.533203 ZM6.499878,27.999023 C5.671875,27.999023 5.0,28.67041 5.0,29.499023 C5.0,30.327148 5.671875,30.999512 6.499878,30.999512 C7.328125,30.999512 8.0,30.327148 8.0,29.499023 C8.0,28.67041 7.328125,27.999023 6.499878,27.999023 ZM6.499878,29.998535 C6.2246094,29.998535 6.0,29.773438 6.0,29.499023 C6.0,29.224121 6.2246094,28.999512 6.499878,28.999512 C6.7753906,28.999512 6.999878,29.224121 6.999878,29.499023 C6.999878,29.773438 6.7753906,29.998535 6.499878,29.998535 Z"/>
</svg>