<svg xmlns="http://www.w3.org/2000/svg" width="90" height="58" viewBox="0 0 90 58">
	<style type="text/css">
		.st0{fill:#000000;}
	</style>
	<path class="st0" d="M88.06,15.42C85.29,16.87 51.22,34.68 49.53,35.57C47.83,36.45 46.64,36.57 45,36.57C43.35,36.57 42.16,36.45 40.46,35.57C38.77,34.68 4.71,16.87 1.93,15.42C-0.01,14.41 0,15.6 0,16.52L0,53.2C0,55.3 2.79,58 4.95,58L85.04,58C87.2,58 90,55.3 90,53.2L90,16.52C90,15.6 90.01,14.41 88.06,15.42M2.96,5.42C5.41,6.74 39.21,24.89 40.46,25.57C41.72,26.24 43.35,26.57 45,26.57C46.64,26.57 48.27,26.24 49.53,25.57C50.78,24.89 84.58,6.74 87.03,5.42C89.47,4.11 91.78,0 87.29,0L2.7,0C-1.78,0 0.52,4.11 2.96,5.42"/>
</svg>