<svg xmlns="http://www.w3.org/2000/svg"
 xmlns:xlink="http://www.w3.org/1999/xlink"
 width="35px" height="35px"  viewBox="0 0 35 35">
<path fill-rule="evenodd"  fill="$color_svg$"
 d="M10.0,8.021118 C10.0,8.021118 10.0,4.9995117 10.0,4.9995117 C10.0,3.3452148 8.654175,1.9998779 7.0,1.9998779 C5.345703,1.9998779 3.999878,3.3452148 3.999878,4.9995117 C3.999878,4.9995117 3.999878,8.021118 3.999878,8.021118 C2.7919922,8.934204 2.0,10.368774 2.0,11.999512 C2.0,13.630249 2.7919922,15.064087 3.999878,15.975586 C3.999878,15.975586 3.999878,30.999023 3.999878,30.999023 C3.999878,32.654053 5.345703,33.99939 7.0,33.99939 C8.654175,33.99939 10.0,32.654053 10.0,30.999023 C10.0,30.999023 10.0,15.975586 10.0,15.975586 C11.207886,15.064087 11.999878,13.630249 11.999878,11.999512 C11.999878,10.368774 11.207886,8.934204 10.0,8.021118 ZM5.999878,4.9995117 C5.999878,4.4467773 6.4472656,3.9996338 7.0,3.9996338 C7.5527344,3.9996338 8.0,4.4467773 8.0,4.9995117 C8.0,4.9995117 8.0,7.0985107 8.0,7.0985107 C7.676758,7.034424 7.3427734,6.9992676 7.0,6.9992676 C6.6571045,6.9992676 6.323242,7.034424 5.999878,7.0985107 C5.999878,7.0985107 5.999878,4.9995117 5.999878,4.9995117 ZM8.0,30.999023 C8.0,31.55249 7.5527344,31.998901 7.0,31.998901 C6.4472656,31.998901 5.999878,31.55249 5.999878,30.999023 C5.999878,30.999023 5.999878,16.897339 5.999878,16.897339 C6.323242,16.9646 6.6571045,16.998901 7.0,16.998901 C7.3427734,16.998901 7.676758,16.9646 8.0,16.897339 C8.0,16.897339 8.0,30.999023 8.0,30.999023 ZM9.865234,12.838379 C9.849609,12.8914795 9.834961,12.944702 9.816406,12.99707 C9.72168,13.261353 9.599609,13.510742 9.438477,13.7335205 C9.43457,13.739014 9.428589,13.74292 9.424805,13.7491455 C9.250977,13.987549 9.043823,14.198608 8.808472,14.376099 C8.8046875,14.380005 8.801758,14.381592 8.798828,14.383911 C8.557617,14.56604 8.2890625,14.711426 8.0,14.813843 C7.685425,14.927246 7.352417,14.9991455 7.0,14.9991455 C6.647461,14.9991455 6.314453,14.927246 5.999878,14.813843 C5.7108154,14.711426 5.442383,14.56604 5.201172,14.383911 C5.19812,14.381592 5.1951904,14.380005 5.1914062,14.376099 C4.9560547,14.198608 4.7489014,13.987549 4.5751953,13.7491455 C4.571289,13.74292 4.5654297,13.739014 4.5614014,13.7335205 C4.4003906,13.510742 4.2781982,13.261353 4.1835938,12.99707 C4.165039,12.944702 4.1502686,12.8914795 4.1347656,12.838379 C4.0545654,12.571045 3.999878,12.292725 3.999878,11.999512 C3.999878,11.7039795 4.0545654,11.425659 4.1347656,11.157593 C4.1502686,11.10437 4.165039,11.052002 4.1835938,11.001221 C4.2781982,10.737671 4.4003906,10.487549 4.5614014,10.263184 C4.5654297,10.256958 4.571289,10.253052 4.5751953,10.247559 C4.7489014,10.01062 4.9560547,9.797974 5.1914062,9.620605 C5.1951904,9.618286 5.19812,9.614258 5.201172,9.612793 C5.442383,9.432129 5.7108154,9.286743 5.999878,9.182739 C6.314453,9.070923 6.647461,8.999023 7.0,8.999023 C7.352417,8.999023 7.685425,9.070923 8.0,9.182739 C8.2890625,9.286743 8.557617,9.432129 8.798828,9.612793 C8.801758,9.614258 8.8046875,9.618286 8.808472,9.620605 C9.043823,9.797974 9.250977,10.01062 9.424805,10.247559 C9.428589,10.253052 9.43457,10.256958 9.438477,10.263184 C9.599609,10.487549 9.72168,10.737671 9.816406,11.001221 C9.834961,11.052002 9.849609,11.10437 9.865234,11.157593 C9.9453125,11.425659 10.0,11.7039795 10.0,11.999512 C10.0,12.292725 9.9453125,12.571045 9.865234,12.838379 ZM31.999878,8.021118 C31.999878,8.021118 31.999878,4.9995117 31.999878,4.9995117 C31.999878,3.3452148 30.654297,1.9998779 28.999878,1.9998779 C27.345703,1.9998779 25.999878,3.3452148 25.999878,4.9995117 C25.999878,4.9995117 25.999878,8.021118 25.999878,8.021118 C24.79187,8.934204 24.0,10.368774 24.0,11.999512 C24.0,13.630249 24.79187,15.064087 25.999878,15.975586 C25.999878,15.975586 25.999878,30.999023 25.999878,30.999023 C25.999878,32.654053 27.345703,33.99939 28.999878,33.99939 C30.654297,33.99939 31.999878,32.654053 31.999878,30.999023 C31.999878,30.999023 31.999878,15.975586 31.999878,15.975586 C33.207886,15.064087 34.0,13.630249 34.0,11.999512 C34.0,10.368774 33.207886,8.934204 31.999878,8.021118 ZM28.0,4.9995117 C28.0,4.4467773 28.447266,3.9996338 28.999878,3.9996338 C29.552612,3.9996338 30.0,4.4467773 30.0,4.9995117 C30.0,4.9995117 30.0,7.0985107 30.0,7.0985107 C29.676758,7.034424 29.342773,6.9992676 28.999878,6.9992676 C28.657104,6.9992676 28.32312,7.034424 28.0,7.0985107 C28.0,7.0985107 28.0,4.9995117 28.0,4.9995117 ZM30.0,30.999023 C30.0,31.55249 29.552612,31.998901 28.999878,31.998901 C28.447266,31.998901 28.0,31.55249 28.0,30.999023 C28.0,30.999023 28.0,16.897339 28.0,16.897339 C28.32312,16.9646 28.657104,16.998901 28.999878,16.998901 C29.342773,16.998901 29.676758,16.9646 30.0,16.897339 C30.0,16.897339 30.0,30.999023 30.0,30.999023 ZM31.865112,12.838379 C31.84961,12.8914795 31.83496,12.944702 31.816406,12.99707 C31.721558,13.261353 31.599487,13.510742 31.438477,13.7335205 C31.43457,13.739014 31.42871,13.74292 31.424805,13.7491455 C31.250977,13.987549 31.043823,14.198608 30.808594,14.376099 C30.804688,14.380005 30.801758,14.381592 30.798828,14.383911 C30.557495,14.56604 30.289062,14.711426 30.0,14.813843 C29.685425,14.927246 29.352417,14.9991455 28.999878,14.9991455 C28.64746,14.9991455 28.314453,14.927246 28.0,14.813843 C27.710815,14.711426 27.44226,14.56604 27.201172,14.383911 C27.19812,14.381592 27.195312,14.380005 27.191406,14.376099 C26.956055,14.198608 26.748901,13.987549 26.575195,13.7491455 C26.57129,13.74292 26.565308,13.739014 26.561401,13.7335205 C26.400269,13.510742 26.278198,13.261353 26.183594,12.99707 C26.164917,12.944702 26.15039,12.8914795 26.134766,12.838379 C26.054688,12.571045 25.999878,12.292725 25.999878,11.999512 C25.999878,11.7039795 26.054688,11.425659 26.134766,11.157593 C26.15039,11.10437 26.164917,11.052002 26.183594,11.001221 C26.278198,10.737671 26.400269,10.487549 26.561401,10.263184 C26.565308,10.256958 26.57129,10.253052 26.575195,10.247559 C26.748901,10.01062 26.956055,9.797974 27.191406,9.620605 C27.195312,9.618286 27.19812,9.614258 27.201172,9.612793 C27.44226,9.432129 27.710815,9.286743 28.0,9.182739 C28.314453,9.070923 28.64746,8.999023 28.999878,8.999023 C29.352417,8.999023 29.685425,9.070923 30.0,9.182739 C30.289062,9.286743 30.557495,9.432129 30.798828,9.612793 C30.801758,9.614258 30.804688,9.618286 30.808594,9.620605 C31.043823,9.797974 31.250977,10.01062 31.424805,10.247559 C31.42871,10.253052 31.43457,10.256958 31.438477,10.263184 C31.599487,10.487549 31.721558,10.737671 31.816406,11.001221 C31.83496,11.052002 31.84961,11.10437 31.865112,11.157593 C31.945312,11.425659 31.999878,11.7039795 31.999878,11.999512 C31.999878,12.292725 31.945312,12.571045 31.865112,12.838379 ZM20.999878,20.020508 C20.999878,20.020508 20.999878,4.9995117 20.999878,4.9995117 C20.999878,3.3452148 19.654297,1.9998779 18.0,1.9998779 C16.345703,1.9998779 14.999878,3.3452148 14.999878,4.9995117 C14.999878,4.9995117 14.999878,20.020508 14.999878,20.020508 C13.791992,20.934448 13.0,22.369019 13.0,23.999756 C13.0,25.630493 13.791992,27.063477 14.999878,27.97583 C14.999878,27.97583 14.999878,30.999023 14.999878,30.999023 C14.999878,32.654053 16.345703,33.99939 18.0,33.99939 C19.654297,33.99939 20.999878,32.654053 20.999878,30.999023 C20.999878,30.999023 20.999878,27.97583 20.999878,27.97583 C22.207886,27.063477 22.999878,25.630493 22.999878,23.999756 C22.999878,22.369019 22.207886,20.934448 20.999878,20.020508 ZM17.0,4.9995117 C17.0,4.4467773 17.447144,3.9996338 18.0,3.9996338 C18.552612,3.9996338 19.0,4.4467773 19.0,4.9995117 C19.0,4.9995117 19.0,19.098755 19.0,19.098755 C18.676758,19.034668 18.342773,18.99878 18.0,18.99878 C17.657104,18.99878 17.32312,19.034668 17.0,19.098755 C17.0,19.098755 17.0,4.9995117 17.0,4.9995117 ZM19.0,30.999023 C19.0,31.55249 18.552612,31.998901 18.0,31.998901 C17.447144,31.998901 17.0,31.55249 17.0,30.999023 C17.0,30.999023 17.0,28.897583 17.0,28.897583 C17.32312,28.96399 17.657104,28.999146 18.0,28.999146 C18.342773,28.999146 18.676758,28.96399 19.0,28.897583 C19.0,28.897583 19.0,30.999023 19.0,30.999023 ZM20.865234,24.839355 C20.84961,24.892578 20.83496,24.944092 20.816406,24.997314 C20.721558,25.261475 20.59961,25.510864 20.438477,25.733765 C20.43457,25.739258 20.428589,25.743896 20.424805,25.74939 C20.250977,25.987793 20.043823,26.19812 19.808594,26.376343 C19.804688,26.380249 19.801758,26.382568 19.798828,26.384155 C19.557495,26.565552 19.289062,26.71167 19.0,26.813354 C18.685425,26.926758 18.35254,26.99939 18.0,26.99939 C17.64746,26.99939 17.314453,26.926758 17.0,26.813354 C16.710815,26.71167 16.44226,26.565552 16.201172,26.384155 C16.198242,26.382568 16.195312,26.380249 16.191406,26.376343 C15.956055,26.19812 15.748901,25.987793 15.575195,25.74939 C15.571289,25.743896 15.56543,25.739258 15.561401,25.733765 C15.400269,25.510864 15.27832,25.261475 15.183594,24.997314 C15.165039,24.944092 15.150269,24.892578 15.134766,24.839355 C15.054565,24.571167 14.999878,24.292114 14.999878,23.999756 C14.999878,23.704224 15.054565,23.42517 15.134766,23.156982 C15.150269,23.104614 15.165039,23.051514 15.183594,23.001465 C15.27832,22.737915 15.400269,22.487793 15.561401,22.262695 C15.56543,22.257202 15.571289,22.253296 15.575195,22.247803 C15.748901,22.010864 15.956055,21.798218 16.191406,21.62085 C16.195312,21.618408 16.198242,21.614502 16.201172,21.613037 C16.44226,21.433228 16.710815,21.286255 17.0,21.182983 C17.314453,21.072021 17.64746,20.999268 18.0,20.999268 C18.35254,20.999268 18.685425,21.072021 19.0,21.182983 C19.289062,21.286255 19.557495,21.433228 19.798828,21.613037 C19.801758,21.614502 19.804688,21.618408 19.808594,21.62085 C20.043823,21.798218 20.250977,22.010864 20.424805,22.247803 C20.428589,22.253296 20.43457,22.257202 20.438477,22.262695 C20.59961,22.487793 20.721558,22.737915 20.816406,23.001465 C20.83496,23.051514 20.84961,23.104614 20.865234,23.156982 C20.945312,23.42517 20.999878,23.704224 20.999878,23.999756 C20.999878,24.292114 20.945312,24.571167 20.865234,24.839355 Z"/>
</svg>