<svg xmlns="http://www.w3.org/2000/svg"
 xmlns:xlink="http://www.w3.org/1999/xlink"
 width="43px" height="34px"  viewBox="0 0 43 34">
<path fill-rule="evenodd"  fill="$color_svg$"
 d="M38.331177,32.94763 C38.331177,32.94763 4.6673584,32.94763 4.6673584,32.94763 C3.1800537,32.94763 1.9743652,31.75769 1.9743652,30.28955 C1.9743652,30.28955 1.9743652,9.022949 1.9743652,9.022949 C1.9743652,7.555542 3.1800537,6.364868 4.6673584,6.364868 C4.6673584,6.364868 12.831421,6.364868 12.831421,6.364868 C12.831421,6.364868 12.747437,6.2061768 12.747437,4.3706055 C12.747437,2.5357666 14.254517,1.0480957 16.113647,1.0480957 C16.113647,1.0480957 26.886108,1.0480957 26.886108,1.0480957 C28.745361,1.0480957 30.252441,2.5357666 30.252441,4.3706055 C30.252441,6.2061768 30.336548,6.364868 30.336548,6.364868 C30.336548,6.364868 38.331177,6.364868 38.331177,6.364868 C39.81848,6.364868 41.024292,7.555542 41.024292,9.022949 C41.024292,9.022949 41.024292,30.28955 41.024292,30.28955 C41.024292,31.75769 39.81848,32.94763 38.331177,32.94763 ZM21.559937,27.595581 C26.022095,27.595581 29.639404,24.026001 29.639404,19.62146 C29.639404,15.216187 26.022095,11.645752 21.559937,11.645752 C17.0979,11.645752 13.480713,15.216187 13.480713,19.62146 C13.480713,24.026001 17.0979,27.595581 21.559937,27.595581 Z"/>
</svg>