<svg xmlns="http://www.w3.org/2000/svg"
 xmlns:xlink="http://www.w3.org/1999/xlink"
 width="24px" height="20px"  viewBox="0 0 24 20">
<path fill-rule="evenodd"  fill="$color_svg$"
 d="M20.64978,18.723633 C20.64978,18.723633 2.7999268,18.723633 2.7999268,18.723633 C1.8609619,18.723633 1.0998535,17.96289 1.0998535,17.023438 C1.0998535,17.023438 1.0998535,3.4238281 1.0998535,3.4238281 C1.0998535,2.4853516 1.8609619,1.7236328 2.7999268,1.7236328 C2.7999268,1.7236328 20.64978,1.7236328 20.64978,1.7236328 C21.588745,1.7236328 22.349854,2.4853516 22.349854,3.4238281 C22.349854,3.4238281 22.349854,17.023438 22.349854,17.023438 C22.349854,17.96289 21.588745,18.723633 20.64978,18.723633 ZM20.64978,3.4238281 C20.64978,3.4238281 2.7999268,3.4238281 2.7999268,3.4238281 C2.7999268,3.4238281 2.7999268,17.023438 2.7999268,17.023438 C2.7999268,17.023438 20.64978,17.023438 20.64978,17.023438 C20.64978,17.023438 20.64978,3.4238281 20.64978,3.4238281 ZM7.6019287,13.822266 C7.6019287,13.822266 10.142578,9.484375 10.142578,9.484375 C10.142578,9.484375 12.683228,12.1875 12.683228,12.1875 C12.683228,12.1875 16.176758,6.6328125 16.176758,6.6328125 C16.176758,6.6328125 19.828857,16.19043 19.828857,16.19043 C19.828857,16.19043 3.63208,16.19043 3.63208,16.19043 C3.63208,16.19043 5.696411,11.832031 5.696411,11.832031 C5.696411,11.832031 7.6019287,13.822266 7.6019287,13.822266 ZM6.199829,5.973633 C7.138672,5.973633 7.8999023,6.7353516 7.8999023,7.673828 C7.8999023,8.613281 7.138672,9.375 6.199829,9.375 C5.2609863,9.375 4.499756,8.613281 4.499756,7.673828 C4.499756,6.7353516 5.2609863,5.973633 6.199829,5.973633 Z"/>
</svg>