<svg xmlns="http://www.w3.org/2000/svg"
 xmlns:xlink="http://www.w3.org/1999/xlink"
 width="26px" height="23px"  viewBox="0 0 26 23">
<path fill-rule="evenodd"  fill="$color_svg$"
 d="M23.199738,21.274414 C23.199738,21.274414 5.3498535,21.274414 5.3498535,21.274414 C4.411072,21.274414 3.6498108,20.512695 3.6498108,19.574219 C3.6498108,19.574219 21.499847,19.574219 21.499847,19.574219 C22.43872,19.574219 23.199738,18.8125 23.199738,17.873047 C23.199738,17.873047 23.199738,4.2734375 23.199738,4.2734375 C24.138641,4.2734375 24.89975,5.0351562 24.89975,5.973633 C24.89975,5.973633 24.89975,19.574219 24.89975,19.574219 C24.89975,20.512695 24.138641,21.274414 23.199738,21.274414 ZM20.64981,18.723633 C20.64981,18.723633 2.7998047,18.723633 2.7998047,18.723633 C1.861023,18.723633 1.0997925,17.96289 1.0997925,17.024414 C1.0997925,17.024414 1.0997925,3.4238281 1.0997925,3.4238281 C1.0997925,2.484375 1.861023,1.7236328 2.7998047,1.7236328 C2.7998047,1.7236328 20.64981,1.7236328 20.64981,1.7236328 C21.588715,1.7236328 22.349731,2.484375 22.349731,3.4238281 C22.349731,3.4238281 22.349731,17.024414 22.349731,17.024414 C22.349731,17.96289 21.588715,18.723633 20.64981,18.723633 ZM20.64981,3.4238281 C20.64981,3.4238281 2.7998047,3.4238281 2.7998047,3.4238281 C2.7998047,3.4238281 2.7998047,17.024414 2.7998047,17.024414 C2.7998047,17.024414 20.64981,17.024414 20.64981,17.024414 C20.64981,17.024414 20.64981,3.4238281 20.64981,3.4238281 ZM7.6019897,13.822266 C7.6019897,13.822266 10.142517,9.483398 10.142517,9.483398 C10.142517,9.483398 12.683258,12.1875 12.683258,12.1875 C12.683258,12.1875 16.176788,6.6328125 16.176788,6.6328125 C16.176788,6.6328125 19.828918,16.191406 19.828918,16.191406 C19.828918,16.191406 3.6319885,16.191406 3.6319885,16.191406 C3.6319885,16.191406 5.696472,11.831055 5.696472,11.831055 C5.696472,11.831055 7.6019897,13.822266 7.6019897,13.822266 ZM6.1998596,5.973633 C7.1387634,5.973633 7.8997498,6.734375 7.8997498,7.673828 C7.8997498,8.612305 7.1387634,9.373047 6.1998596,9.373047 C5.261078,9.373047 4.4998474,8.612305 4.4998474,7.673828 C4.4998474,6.734375 5.261078,5.973633 6.1998596,5.973633 Z"/>
</svg>