<svg xmlns="http://www.w3.org/2000/svg"
 xmlns:xlink="http://www.w3.org/1999/xlink"
 width="35px" height="31px"  viewBox="0 0 35 31">
<path fill-rule="evenodd"  fill="$color_svg$"
 d="M33.923706,18.454102 C33.923706,18.454102 29.921875,3.4487305 29.921875,3.4487305 C29.679626,2.5957031 28.889526,1.9985352 27.999939,1.9985352 C27.999939,1.9985352 17.999878,1.9985352 17.999878,1.9985352 C17.999878,1.9985352 7.999939,1.9985352 7.999939,1.9985352 C7.1103516,1.9985352 6.3202515,2.5957031 6.078003,3.4487305 C6.078003,3.4487305 2.0761719,18.454102 2.0761719,18.454102 C2.0253296,18.636719 1.999939,18.8208 1.999939,18.999023 C1.999939,18.999023 1.999939,25.999023 1.999939,25.999023 C1.999939,28.208008 3.7909546,29.999023 5.999939,29.999023 C5.999939,29.999023 30.0,29.999023 30.0,29.999023 C32.208923,29.999023 33.99994,28.208008 33.99994,25.999023 C33.99994,25.999023 33.99994,18.999023 33.99994,18.999023 C33.99994,18.8208 33.97455,18.636719 33.923706,18.454102 ZM32.0,25.999023 C32.0,27.101074 31.102417,27.998535 30.0,27.998535 C30.0,27.998535 5.999939,27.998535 5.999939,27.998535 C4.897461,27.998535 4.0,27.101074 4.0,25.999023 C4.0,25.999023 4.0,18.999023 4.0,18.999023 C4.0,18.999023 8.0008545,3.9975586 8.0008545,3.9975586 C8.0008545,3.9975586 27.999023,3.9975586 27.999023,3.9975586 C27.999023,3.9975586 32.0,18.999023 32.0,18.999023 C32.0,18.999023 32.0,25.999023 32.0,25.999023 ZM25.742188,5.9995117 C25.742188,5.9995117 10.25769,5.9995117 10.25769,5.9995117 C9.8046875,5.9995117 9.408203,6.3027344 9.291016,6.743164 C9.291016,6.743164 5.845642,18.7417 5.845642,18.7417 C5.7666016,19.041992 5.830017,19.361816 6.019409,19.608887 C6.2089233,19.854004 6.502014,19.998047 6.812439,19.998047 C6.812439,19.998047 9.71875,19.998047 9.71875,19.998047 C9.71875,19.998047 10.859375,19.998047 10.859375,19.998047 C10.859375,19.998047 11.380859,19.998047 11.380859,19.998047 C11.380859,19.998047 12.828064,22.893555 12.828064,22.893555 C13.166931,23.57129 13.859375,23.998535 14.6171875,23.998535 C14.6171875,23.998535 21.382812,23.998535 21.382812,23.998535 C22.140503,23.998535 22.832947,23.57129 23.171814,22.893555 C23.171814,22.893555 24.619019,19.998047 24.619019,19.998047 C24.619019,19.998047 25.140503,19.998047 25.140503,19.998047 C25.140503,19.998047 26.28125,19.998047 26.28125,19.998047 C26.28125,19.998047 29.187439,19.998047 29.187439,19.998047 C29.497986,19.998047 29.790955,19.854004 29.980469,19.608887 C30.16986,19.361816 30.233398,19.041992 30.154236,18.7417 C30.154236,18.7417 26.708862,6.743164 26.708862,6.743164 C26.591736,6.3027344 26.195312,5.9995117 25.742188,5.9995117 ZM26.28125,17.999023 C26.28125,17.999023 24.619019,17.999023 24.619019,17.999023 C23.8573,17.999023 23.171814,18.421387 22.830017,19.103516 C22.830017,19.103516 21.382812,21.998535 21.382812,21.998535 C21.382812,21.998535 14.6171875,21.998535 14.6171875,21.998535 C14.6171875,21.998535 13.169861,19.103516 13.169861,19.103516 C12.828064,18.421387 12.142578,17.999023 11.380859,17.999023 C11.380859,17.999023 9.71875,17.999023 9.71875,17.999023 C9.71875,17.999023 7.3339233,17.999023 7.3339233,17.999023 C7.3339233,17.999023 10.25769,6.998535 10.25769,6.998535 C10.25769,6.998535 25.742188,6.998535 25.742188,6.998535 C25.742188,6.998535 28.665955,17.999023 28.665955,17.999023 C28.665955,17.999023 26.28125,17.999023 26.28125,17.999023 Z"/>
</svg>