<svg xmlns="http://www.w3.org/2000/svg"
 xmlns:xlink="http://www.w3.org/1999/xlink"
 width="30px" height="29px"  viewBox="0 0 30 29">
<path fill-rule="evenodd"  fill="$color_svg$"
 d="M28.498474,11.146973 C28.26355,10.468262 27.659302,9.972168 26.932129,9.863281 C26.932129,9.863281 19.85492,8.811035 19.85492,8.811035 C19.85492,8.811035 16.777771,2.4238281 16.777771,2.4238281 C16.454834,1.7529297 15.761841,1.3242188 14.999756,1.3242188 C14.238525,1.3242188 13.545471,1.7529297 13.22168,2.4238281 C13.22168,2.4238281 10.145447,8.811035 10.145447,8.811035 C10.145447,8.811035 3.0673218,9.863281 3.0673218,9.863281 C2.34021,9.972168 1.7358398,10.468262 1.501831,11.146973 C1.2677002,11.828125 1.444519,12.577637 1.958374,13.089844 C1.958374,13.089844 7.1447754,18.269043 7.1447754,18.269043 C7.1447754,18.269043 5.9420166,25.45166 5.9420166,25.45166 C5.8198853,26.174805 6.133667,26.901367 6.747986,27.325195 C7.0858154,27.55664 7.482605,27.674316 7.8793335,27.674316 C8.205566,27.674316 8.532532,27.59375 8.829773,27.436035 C8.829773,27.436035 14.999756,24.114258 14.999756,24.114258 C14.999756,24.114258 21.170593,27.436035 21.170593,27.436035 C21.467651,27.59375 21.794678,27.674316 22.120178,27.674316 C22.517761,27.674316 22.913696,27.55664 23.25238,27.325195 C23.866577,26.901367 24.179504,26.174805 24.05835,25.45166 C24.05835,25.45166 22.854736,18.269043 22.854736,18.269043 C22.854736,18.269043 28.041992,13.089844 28.041992,13.089844 C28.555664,12.577637 28.73169,11.828125 28.498474,11.146973 ZM21.449463,16.933105 C21.014526,17.367676 20.816895,17.97754 20.917297,18.576172 C20.917297,18.576172 22.120178,25.760742 22.120178,25.760742 C22.120178,25.760742 15.950195,22.439941 15.950195,22.439941 C15.653809,22.28125 15.326782,22.200684 14.999756,22.200684 C14.673462,22.200684 14.346436,22.28125 14.050049,22.439941 C14.050049,22.439941 7.8793335,25.760742 7.8793335,25.760742 C7.8793335,25.760742 9.083008,18.576172 9.083008,18.576172 C9.183289,17.97754 8.985779,17.367676 8.550903,16.933105 C8.550903,16.933105 3.364502,11.754395 3.364502,11.754395 C3.364502,11.754395 10.4418335,10.701172 10.4418335,10.701172 C11.088318,10.604492 11.645386,10.200195 11.923462,9.623535 C11.923462,9.623535 14.999756,3.237793 14.999756,3.237793 C14.999756,3.237793 18.076782,9.623535 18.076782,9.623535 C18.35498,10.200195 18.911072,10.604492 19.557678,10.701172 C19.557678,10.701172 26.635864,11.754395 26.635864,11.754395 C26.635864,11.754395 21.449463,16.933105 21.449463,16.933105 Z"/>
</svg>