<svg xmlns="http://www.w3.org/2000/svg"
 xmlns:xlink="http://www.w3.org/1999/xlink"
 width="36px" height="35px"  viewBox="0 0 36 35">
<path fill-rule="evenodd"  fill="$color_svg$"
 d="M33.109375,30.33496 C32.90918,30.202148 29.261597,27.80957 23.836914,26.63623 C25.827026,24.113281 27.104492,20.723145 27.64746,18.466797 C28.40039,15.337891 28.108276,9.218262 25.104492,5.404785 C23.34851,3.1767578 20.89148,1.9985352 18.0,1.9985352 C15.108398,1.9985352 12.651367,3.1767578 10.895386,5.404785 C7.8916016,9.218262 7.5994873,15.337891 8.352417,18.466797 C8.895508,20.723145 10.172852,24.113281 12.162964,26.63623 C6.7382812,27.80957 3.0908203,30.202148 2.890625,30.33496 C2.1572266,30.823242 1.8300781,31.734863 2.0859375,32.577637 C2.3406982,33.421387 3.1191406,33.999023 4.0,33.999023 C4.0,33.999023 31.999878,33.999023 31.999878,33.999023 C32.88086,33.999023 33.65918,33.421387 33.914062,32.577637 C34.1698,31.734863 33.842773,30.823242 33.109375,30.33496 ZM22.26648,25.396973 C22.26648,25.396973 21.939453,25.8125 21.939453,25.8125 C19.554688,28.551758 16.44519,28.551758 14.060425,25.8125 C14.060425,25.8125 13.733398,25.396973 13.733398,25.396973 C10.94812,21.867676 9.566284,17.201172 10.161133,12.748047 C10.707031,8.46875 13.15918,3.9985352 18.0,3.9985352 C22.84082,3.9985352 25.292969,8.46875 25.838745,12.748047 C26.430664,17.202637 25.053589,21.8667 22.26648,25.396973 ZM4.0,31.999023 C4.1375732,31.907227 7.526367,29.685059 12.585815,28.591309 C12.585815,28.591309 15.07019,28.052734 15.07019,28.052734 C15.956055,28.63623 16.929688,28.999512 18.0,28.999512 C19.070312,28.999512 20.043823,28.63623 20.929688,28.052734 C20.929688,28.052734 23.414062,28.591309 23.414062,28.591309 C28.43457,29.676758 31.810547,31.873535 31.999878,31.999023 C31.999878,31.999023 4.0,31.999023 4.0,31.999023 Z"/>
</svg>