<svg xmlns="http://www.w3.org/2000/svg"
 xmlns:xlink="http://www.w3.org/1999/xlink"
 width="31px" height="31px"  viewBox="0 0 31 31">
<path fill-rule="evenodd"  fill="$color_svg$"
 d="M15.5,1.5493164 C7.795532,1.5493164 1.5500488,7.794922 1.5500488,15.499023 C1.5500488,23.203613 7.795532,29.449219 15.5,29.449219 C23.204468,29.449219 29.449951,23.203613 29.449951,15.499023 C29.449951,7.794922 23.204468,1.5493164 15.5,1.5493164 ZM27.627075,15.048828 C27.627075,15.048828 22.23059,15.048828 22.23059,15.048828 C22.181396,13.056152 21.82727,11.150879 21.197998,9.408203 C22.411743,8.900879 23.534912,8.227051 24.559692,7.4311523 C26.38086,9.474121 27.519897,12.128418 27.627075,15.048828 ZM15.002563,27.623535 C13.506592,26.378418 12.252319,24.760742 11.333984,22.8833 C12.511719,22.514648 13.76062,22.312988 15.049927,22.27246 C15.049927,22.27246 15.049927,27.625977 15.049927,27.625977 C15.03418,27.625488 15.018311,27.624512 15.002563,27.623535 ZM15.996582,3.3745117 C17.693726,4.788086 19.078857,6.680664 20.015747,8.887695 C18.73352,9.327148 17.369263,9.581055 15.949951,9.626465 C15.949951,9.626465 15.949951,3.3725586 15.949951,3.3725586 C15.96582,3.3730469 15.980713,3.3740234 15.996582,3.3745117 ZM17.495117,3.527832 C19.978882,3.940918 22.208618,5.101074 23.942749,6.7807617 C23.00061,7.5024414 21.970459,8.115234 20.858643,8.579102 C20.038696,6.637207 18.889893,4.9208984 17.495117,3.527832 ZM15.049927,3.3725586 C15.049927,3.3725586 15.049927,9.626465 15.049927,9.626465 C13.630493,9.581055 12.2664795,9.327148 10.984131,8.887695 C11.9210205,6.680664 13.306152,4.788086 15.003296,3.3745117 C15.019165,3.3740234 15.03418,3.3730469 15.049927,3.3725586 ZM10.141235,8.579102 C9.029419,8.115234 7.9993896,7.5024414 7.057129,6.7807617 C8.79126,5.101074 11.021118,3.940918 13.504883,3.527832 C12.109985,4.9208984 10.961304,6.637207 10.141235,8.579102 ZM10.644897,9.717285 C12.032593,10.199707 13.510986,10.479492 15.049927,10.526367 C15.049927,10.526367 15.049927,15.048828 15.049927,15.048828 C15.049927,15.048828 9.669312,15.048828 9.669312,15.048828 C9.717529,13.165039 10.051636,11.36377 10.644897,9.717285 ZM15.049927,15.949707 C15.049927,15.949707 15.049927,21.37207 15.049927,21.37207 C13.630493,21.41504 12.258545,21.64795 10.964844,22.063965 C10.185181,20.208496 9.725586,18.140625 9.669312,15.949707 C9.669312,15.949707 15.049927,15.949707 15.049927,15.949707 ZM13.504883,27.470703 C11.279419,27.100586 9.257935,26.131348 7.614502,24.724121 C8.501221,24.109863 9.4592285,23.589844 10.483154,23.19336 C11.267944,24.82129 12.295532,26.265625 13.504883,27.470703 ZM15.949951,27.625977 C15.949951,27.625977 15.949951,22.27246 15.949951,22.27246 C17.23938,22.312988 18.488281,22.514648 19.666016,22.8833 C18.747437,24.760742 17.493286,26.378418 15.997314,27.623535 C15.981689,27.624512 15.96582,27.625488 15.949951,27.625977 ZM20.516724,23.19336 C21.54065,23.589844 22.49878,24.109863 23.385498,24.724121 C21.741821,26.131348 19.720581,27.100586 17.495117,27.470703 C18.704346,26.265625 19.731812,24.82129 20.516724,23.19336 ZM20.035156,22.063965 C18.741333,21.64795 17.369263,21.41504 15.949951,21.37207 C15.949951,21.37207 15.949951,15.949707 15.949951,15.949707 C15.949951,15.949707 21.330688,15.949707 21.330688,15.949707 C21.274414,18.140625 20.814697,20.208496 20.035156,22.063965 ZM15.949951,15.048828 C15.949951,15.048828 15.949951,10.526367 15.949951,10.526367 C17.489014,10.479492 18.967163,10.199707 20.35498,9.717285 C20.948364,11.36377 21.282227,13.165039 21.330688,15.048828 C21.330688,15.048828 15.949951,15.048828 15.949951,15.048828 ZM6.4401855,7.4311523 C7.464966,8.227051 8.588257,8.900879 9.802002,9.408203 C9.172607,11.150879 8.818481,13.056152 8.769287,15.048828 C8.769287,15.048828 3.3728027,15.048828 3.3728027,15.048828 C3.4801025,12.128418 4.6191406,9.474121 6.4401855,7.4311523 ZM3.3728027,15.949707 C3.3728027,15.949707 8.769287,15.949707 8.769287,15.949707 C8.825562,18.248535 9.30542,20.419922 10.121826,22.372559 C8.981934,22.816406 7.918579,23.410156 6.937622,24.109863 C4.8239746,22.007324 3.4906006,19.132324 3.3728027,15.949707 ZM24.062378,24.109863 C23.08142,23.410156 22.017944,22.816406 20.87793,22.372559 C21.69458,20.419922 22.174316,18.248535 22.23059,15.949707 C22.23059,15.949707 27.627075,15.949707 27.627075,15.949707 C27.5094,19.132324 26.176025,22.007324 24.062378,24.109863 Z"/>
</svg>